<?xml version="1.0" encoding="UTF-8"?>
<svg id="Calque_1" data-name="Calque 1" xmlns="http://www.w3.org/2000/svg" viewBox="0 0 1500 1500">
  <defs>
    <style>
      .cls-1 {
        fill: #32a4ef;
      }

      .cls-2 {
        fill: #ed4646;
      }
    </style>
  </defs>
  <path class="cls-1" d="M700.95,314.67l-10.64-97.13c-125.44,13.58-237.89,70.46-322.1,155.4l69.39,68.79c68.85-69.45,160.78-115.94,263.34-127.05Z"/>
  <path class="cls-1" d="M334.55,893.03l-92.38,31.9c40.32,116.79,119.9,215.26,222.96,279.68l51.71-82.91c-84.27-52.66-149.33-133.17-182.29-228.66Z"/>
  <path class="cls-1" d="M310.66,750.05c0-86.22,24.93-166.6,67.94-234.37l-82.55-52.29c-52.61,82.89-83.1,181.21-83.1,286.66,0,20.98,1.25,41.68,3.6,62.03l97.05-11.31c-1.92-16.64-2.94-33.56-2.94-50.72Z"/>
  <path class="cls-1" d="M1129.04,372.94c-84.21-84.94-196.65-141.81-322.1-155.4l-10.64,97.13c102.56,11.11,194.5,57.6,263.35,127.05l69.39-68.79Z"/>
  <path class="cls-2" d="M1083.25,865.59c8.22-23.8,13.96-48.76,16.93-74.56,1.55-13.45,2.38-27.12,2.38-40.99,0-69.67-20.15-134.64-54.91-189.4-13.73-21.62-29.73-41.66-47.68-59.76-55.64-56.12-129.93-93.7-212.82-102.67-12.66-1.37-25.51-2.1-38.53-2.1s-25.87.72-38.53,2.1c-82.88,8.97-157.18,46.55-212.82,102.67-17.95,18.11-33.95,38.14-47.68,59.76-34.76,54.77-54.91,119.73-54.91,189.4,0,13.87.82,27.54,2.37,40.99,2.98,25.8,8.72,50.75,16.94,74.56,26.64,77.17,79.22,142.23,147.32,184.79l91.89-147.34c-34.69-21.68-61.46-54.82-75.03-94.14-4.19-12.13-7.12-24.83-8.64-37.98-.79-6.85-1.24-13.81-1.24-20.88,0-35.5,10.3-68.57,28.01-96.48,6.99-11.02,15.12-21.24,24.26-30.46,28.35-28.59,66.19-47.73,108.42-52.3,6.45-.7,12.99-1.08,19.63-1.08s13.18.38,19.63,1.08c42.23,4.57,80.08,23.71,108.42,52.3,9.14,9.22,17.27,19.45,24.26,30.46,17.71,27.9,28.01,60.98,28.01,96.48,0,7.07-.45,14.02-1.24,20.88-1.52,13.14-4.45,25.85-8.64,37.98-13.57,39.31-40.34,72.45-75.03,94.14l91.89,147.34c68.1-42.56,120.67-107.62,147.32-184.79Z"/>
  <path class="cls-1" d="M1201.2,463.39l-82.55,52.29c43.02,67.77,67.95,148.16,67.95,234.37,0,17.16-1.02,34.07-2.94,50.72l97.05,11.31c2.35-20.36,3.6-41.05,3.6-62.03,0-105.45-30.49-203.77-83.1-286.66Z"/>
  <path class="cls-1" d="M980.41,1121.69l51.71,82.91c103.06-64.41,182.64-162.89,222.96-279.68l-92.38-31.9c-32.97,95.49-98.03,176-182.29,228.66Z"/>
</svg>